<?xml version="1.0" encoding="UTF-8" standalone="no"?>
<svg
   xmlns:dc="http://purl.org/dc/elements/1.1/"
   xmlns:cc="http://creativecommons.org/ns#"
   xmlns:rdf="http://www.w3.org/1999/02/22-rdf-syntax-ns#"
   xmlns:svg="http://www.w3.org/2000/svg"
   xmlns="http://www.w3.org/2000/svg"
   xmlns:sodipodi="http://sodipodi.sourceforge.net/DTD/sodipodi-0.dtd"
   xmlns:inkscape="http://www.inkscape.org/namespaces/inkscape"
   viewBox="0 0 47 48"
   x="0px"
   y="0px"
   version="1.1"
   id="svg12"
   sodipodi:docname="coral.svg"
   width="47"
   height="48"
   inkscape:version="0.92.5 (2060ec1f9f, 2020-04-08)">
  <metadata
     id="metadata18">
    <rdf:RDF>
      <cc:Work
         rdf:about="">
        <dc:format>image/svg+xml</dc:format>
        <dc:type
           rdf:resource="http://purl.org/dc/dcmitype/StillImage" />
        <dc:title>30. Coral</dc:title>
      </cc:Work>
    </rdf:RDF>
  </metadata>
  <defs
     id="defs16" />
  <sodipodi:namedview
     pagecolor="#ffffff"
     bordercolor="#666666"
     borderopacity="1"
     objecttolerance="10"
     gridtolerance="10"
     guidetolerance="10"
     inkscape:pageopacity="0"
     inkscape:pageshadow="2"
     inkscape:window-width="1868"
     inkscape:window-height="1016"
     id="namedview14"
     showgrid="false"
     inkscape:zoom="3.9333333"
     inkscape:cx="24"
     inkscape:cy="30"
     inkscape:window-x="1972"
     inkscape:window-y="27"
     inkscape:window-maximized="1"
     inkscape:current-layer="svg12" />
  <title
     id="title2">30. Coral</title>
  <g
     data-name="30. Coral"
     id="g6"
     transform="translate(-0.25423729,0.20339)"
     style="fill:#007ca3;fill-opacity:1">
    <path
       d="m 40.67,32.43 c -3,2.54 -7.13,2.62 -9.93,2.27 a 23.17,23.17 0 0 1 7,-4.9 C 47.93,25.28 47,11 46.94,10.84 c -0.09,-2.53 -4.18,-2.42 -4,0.3 0,0.1 0.61,9.34 -4.69,13.69 a 11.87,11.87 0 0 0 -3.34,-8 23.93,23.93 0 0 0 5,-9.33 2.0033971,2.0033971 0 1 0 -3.88,-1 19.94,19.94 0 0 1 -4.09,7.68 c -3,-3.65 -1.05,-10.6 -1,-10.68 A 2,2 0 0 0 27.11,2.36 c -0.14,0.46 -3.34,11.45 3.8,16.22 3.74,2.49 3.58,6.72 3.33,8.48 a 27.9,27.9 0 0 0 -8.06,6.72 28.43,28.43 0 0 0 -1,-5.38 16.65,16.65 0 0 0 2.76,-6 2.00921,2.00921 0 1 0 -3.94,-0.79 13.8,13.8 0 0 1 -0.82,2.32 c -1.89,-3.12 -3,-3.19 -5.5,-6.06 A 17.55,17.55 0 0 0 22,6 2,2 0 0 0 19.66,4 C 16.48,4.53 19.6,8.89 15.29,14.51 A 17.31,17.31 0 0 1 13,8.75 2,2 0 0 0 10.74,7 c -4.14,0.49 0.25,8.69 2.6,11.85 2.14,4.28 8.76,4.51 8.89,17.53 A 44.78,44.78 0 0 0 12.15,29.77 7.91,7.91 0 0 0 14,25 2.0004,2.0004 0 1 0 10,25.08 4.73,4.73 0 0 1 8.63,27.8 C 3.82,23.74 5,16 5,11 A 2,2 0 0 0 2.34,9.1 C 0.73,9.61 1,11.36 1,13 c 0,5.15 -0.83,14.64 6.85,19.1 1.2,0.8 4.51,1.78 9.28,5.31 2.57,1.91 1.33,4.62 0.61,7 A 2,2 0 0 0 19.66,47 h 8.62 a 2,2 0 0 0 1.92,-2.57 l -1.36,-4.51 a 1,1 0 0 1 1.1,-1.28 c 4.65,0.64 9.5,0 13.17,-3 a 2.0160419,2.0160419 0 1 0 -2.44,-3.21 z"
       id="path4"
       inkscape:connector-curvature="0"
       style="fill:#007ca3;fill-opacity:1" />
  </g>
</svg>
